<mxfile host="Electron" modified="2023-12-25T13:33:48.937Z" agent="Mozilla/5.0 (Windows NT 10.0; Win64; x64) AppleWebKit/537.36 (KHTML, like Gecko) draw.io/22.1.2 Chrome/114.0.5735.289 Electron/25.9.4 Safari/537.36" etag="a2zuAqjXg1VIkbzvYCGf" version="22.1.2" type="device">
  <diagram name="第 1 页" id="Ll2vlRUy1M-NF73HXNRW">
    <mxGraphModel dx="537" dy="901" grid="1" gridSize="10" guides="1" tooltips="1" connect="1" arrows="1" fold="1" page="1" pageScale="1" pageWidth="1169" pageHeight="827" math="0" shadow="0">
      <root>
        <mxCell id="0" />
        <mxCell id="1" parent="0" />
        <mxCell id="BQbn9dsBxVs3XUPAxdL_-1" style="edgeStyle=orthogonalEdgeStyle;rounded=0;orthogonalLoop=1;jettySize=auto;html=1;exitX=0.5;exitY=0;exitDx=0;exitDy=0;entryX=0.5;entryY=1;entryDx=0;entryDy=0;" edge="1" parent="1" source="BQbn9dsBxVs3XUPAxdL_-2" target="BQbn9dsBxVs3XUPAxdL_-3">
          <mxGeometry relative="1" as="geometry" />
        </mxCell>
        <mxCell id="BQbn9dsBxVs3XUPAxdL_-2" value="线程 1" style="rounded=1;whiteSpace=wrap;html=1;fontStyle=1;fillColor=#f8cecc;strokeColor=#b85450;container=0;" vertex="1" parent="1">
          <mxGeometry x="193" y="670" width="100" height="40" as="geometry" />
        </mxCell>
        <mxCell id="BQbn9dsBxVs3XUPAxdL_-3" value="" style="rounded=1;whiteSpace=wrap;html=1;fillColor=#fff2cc;strokeColor=#d6b656;container=0;" vertex="1" parent="1">
          <mxGeometry x="193" y="470" width="100" height="160" as="geometry" />
        </mxCell>
        <mxCell id="BQbn9dsBxVs3XUPAxdL_-4" value="工作内存" style="text;html=1;strokeColor=none;fillColor=none;align=center;verticalAlign=middle;whiteSpace=wrap;rounded=0;fontStyle=1;container=0;" vertex="1" parent="1">
          <mxGeometry x="213" y="480" width="60" height="30" as="geometry" />
        </mxCell>
        <mxCell id="BQbn9dsBxVs3XUPAxdL_-5" value="" style="rounded=1;whiteSpace=wrap;html=1;fillColor=#dae8fc;strokeColor=#6c8ebf;fontStyle=1;fontSize=14;" vertex="1" parent="1">
          <mxGeometry x="208" y="510" width="70" height="110" as="geometry" />
        </mxCell>
        <mxCell id="BQbn9dsBxVs3XUPAxdL_-6" style="edgeStyle=orthogonalEdgeStyle;rounded=0;orthogonalLoop=1;jettySize=auto;html=1;exitX=0.5;exitY=1;exitDx=0;exitDy=0;entryX=0.5;entryY=0;entryDx=0;entryDy=0;dashed=1;" edge="1" parent="1" source="BQbn9dsBxVs3XUPAxdL_-7" target="BQbn9dsBxVs3XUPAxdL_-8">
          <mxGeometry relative="1" as="geometry" />
        </mxCell>
        <mxCell id="BQbn9dsBxVs3XUPAxdL_-7" value="i = 0" style="text;html=1;strokeColor=none;fillColor=none;align=center;verticalAlign=middle;whiteSpace=wrap;rounded=0;fontStyle=1;fontSize=14;" vertex="1" parent="1">
          <mxGeometry x="213" y="520" width="60" height="30" as="geometry" />
        </mxCell>
        <mxCell id="BQbn9dsBxVs3XUPAxdL_-8" value="i = 1" style="text;html=1;strokeColor=none;fillColor=none;align=center;verticalAlign=middle;whiteSpace=wrap;rounded=0;fontStyle=1;fontSize=14;fontColor=#FF0000;" vertex="1" parent="1">
          <mxGeometry x="213" y="580" width="60" height="30" as="geometry" />
        </mxCell>
        <mxCell id="BQbn9dsBxVs3XUPAxdL_-27" style="edgeStyle=orthogonalEdgeStyle;rounded=0;orthogonalLoop=1;jettySize=auto;html=1;exitX=0.75;exitY=1;exitDx=0;exitDy=0;" edge="1" parent="1" source="BQbn9dsBxVs3XUPAxdL_-10">
          <mxGeometry relative="1" as="geometry">
            <mxPoint x="426" y="469" as="targetPoint" />
          </mxGeometry>
        </mxCell>
        <mxCell id="BQbn9dsBxVs3XUPAxdL_-10" value="" style="rounded=1;whiteSpace=wrap;html=1;fillColor=#d5e8d4;strokeColor=#82b366;" vertex="1" parent="1">
          <mxGeometry x="190" y="330" width="315" height="90" as="geometry" />
        </mxCell>
        <mxCell id="BQbn9dsBxVs3XUPAxdL_-11" style="edgeStyle=orthogonalEdgeStyle;rounded=0;orthogonalLoop=1;jettySize=auto;html=1;exitX=0.5;exitY=0;exitDx=0;exitDy=0;entryX=0.168;entryY=1;entryDx=0;entryDy=0;entryPerimeter=0;" edge="1" parent="1" source="BQbn9dsBxVs3XUPAxdL_-3" target="BQbn9dsBxVs3XUPAxdL_-10">
          <mxGeometry relative="1" as="geometry" />
        </mxCell>
        <mxCell id="BQbn9dsBxVs3XUPAxdL_-13" style="edgeStyle=orthogonalEdgeStyle;rounded=0;orthogonalLoop=1;jettySize=auto;html=1;exitX=0.5;exitY=0;exitDx=0;exitDy=0;entryX=0.5;entryY=1;entryDx=0;entryDy=0;" edge="1" parent="1" source="BQbn9dsBxVs3XUPAxdL_-14" target="BQbn9dsBxVs3XUPAxdL_-15">
          <mxGeometry relative="1" as="geometry" />
        </mxCell>
        <mxCell id="BQbn9dsBxVs3XUPAxdL_-14" value="线程 2" style="rounded=1;whiteSpace=wrap;html=1;fontStyle=1;fillColor=#f8cecc;strokeColor=#b85450;container=0;" vertex="1" parent="1">
          <mxGeometry x="405" y="670" width="100" height="40" as="geometry" />
        </mxCell>
        <mxCell id="BQbn9dsBxVs3XUPAxdL_-39" style="edgeStyle=orthogonalEdgeStyle;rounded=0;orthogonalLoop=1;jettySize=auto;html=1;exitX=0.75;exitY=0;exitDx=0;exitDy=0;" edge="1" parent="1" source="BQbn9dsBxVs3XUPAxdL_-15">
          <mxGeometry relative="1" as="geometry">
            <mxPoint x="480" y="421" as="targetPoint" />
          </mxGeometry>
        </mxCell>
        <mxCell id="BQbn9dsBxVs3XUPAxdL_-15" value="" style="rounded=1;whiteSpace=wrap;html=1;fillColor=#fff2cc;strokeColor=#d6b656;container=0;" vertex="1" parent="1">
          <mxGeometry x="405" y="470" width="100" height="160" as="geometry" />
        </mxCell>
        <mxCell id="BQbn9dsBxVs3XUPAxdL_-16" value="工作内存" style="text;html=1;strokeColor=none;fillColor=none;align=center;verticalAlign=middle;whiteSpace=wrap;rounded=0;fontStyle=1;container=0;" vertex="1" parent="1">
          <mxGeometry x="425" y="480" width="60" height="30" as="geometry" />
        </mxCell>
        <mxCell id="BQbn9dsBxVs3XUPAxdL_-17" value="" style="rounded=1;whiteSpace=wrap;html=1;fillColor=#dae8fc;strokeColor=#6c8ebf;fontStyle=1;fontSize=14;" vertex="1" parent="1">
          <mxGeometry x="420" y="510" width="70" height="110" as="geometry" />
        </mxCell>
        <mxCell id="BQbn9dsBxVs3XUPAxdL_-18" value="i = 0" style="text;html=1;strokeColor=none;fillColor=none;align=center;verticalAlign=middle;whiteSpace=wrap;rounded=0;fontStyle=1;fontSize=14;" vertex="1" parent="1">
          <mxGeometry x="425" y="520" width="60" height="30" as="geometry" />
        </mxCell>
        <mxCell id="BQbn9dsBxVs3XUPAxdL_-20" value="主内存" style="text;html=1;strokeColor=none;fillColor=none;align=center;verticalAlign=middle;whiteSpace=wrap;rounded=0;fontStyle=1;fontSize=14;" vertex="1" parent="1">
          <mxGeometry x="317.5" y="335" width="60" height="30" as="geometry" />
        </mxCell>
        <mxCell id="BQbn9dsBxVs3XUPAxdL_-21" value="" style="rounded=1;whiteSpace=wrap;html=1;fillColor=#dae8fc;strokeColor=#6c8ebf;" vertex="1" parent="1">
          <mxGeometry x="250" y="370" width="190" height="40" as="geometry" />
        </mxCell>
        <mxCell id="BQbn9dsBxVs3XUPAxdL_-41" style="edgeStyle=orthogonalEdgeStyle;rounded=0;orthogonalLoop=1;jettySize=auto;html=1;exitX=1;exitY=0.5;exitDx=0;exitDy=0;entryX=0;entryY=0.5;entryDx=0;entryDy=0;dashed=1;" edge="1" parent="1" source="BQbn9dsBxVs3XUPAxdL_-22" target="BQbn9dsBxVs3XUPAxdL_-40">
          <mxGeometry relative="1" as="geometry" />
        </mxCell>
        <mxCell id="BQbn9dsBxVs3XUPAxdL_-22" value="i = 0" style="text;html=1;strokeColor=none;fillColor=none;align=center;verticalAlign=middle;whiteSpace=wrap;rounded=0;fontStyle=1;fontSize=14;" vertex="1" parent="1">
          <mxGeometry x="263" y="374.5" width="60" height="30" as="geometry" />
        </mxCell>
        <mxCell id="BQbn9dsBxVs3XUPAxdL_-24" value="2. 立即强制更新" style="text;html=1;strokeColor=none;fillColor=none;align=center;verticalAlign=middle;whiteSpace=wrap;rounded=0;fontStyle=1;fontSize=12;" vertex="1" parent="1">
          <mxGeometry x="140" y="430" width="100" height="30" as="geometry" />
        </mxCell>
        <mxCell id="BQbn9dsBxVs3XUPAxdL_-25" style="edgeStyle=orthogonalEdgeStyle;rounded=0;orthogonalLoop=1;jettySize=auto;html=1;exitX=0.5;exitY=1;exitDx=0;exitDy=0;" edge="1" parent="1" source="BQbn9dsBxVs3XUPAxdL_-22" target="BQbn9dsBxVs3XUPAxdL_-22">
          <mxGeometry relative="1" as="geometry" />
        </mxCell>
        <mxCell id="BQbn9dsBxVs3XUPAxdL_-29" value="1. 修改" style="text;html=1;strokeColor=none;fillColor=none;align=center;verticalAlign=middle;whiteSpace=wrap;rounded=0;fontStyle=1;fontSize=12;" vertex="1" parent="1">
          <mxGeometry x="120" y="535" width="80" height="30" as="geometry" />
        </mxCell>
        <mxCell id="BQbn9dsBxVs3XUPAxdL_-30" value="3. 主内存更新" style="text;html=1;strokeColor=none;fillColor=none;align=center;verticalAlign=middle;whiteSpace=wrap;rounded=0;fontStyle=1;fontSize=12;" vertex="1" parent="1">
          <mxGeometry x="405" y="335" width="100" height="30" as="geometry" />
        </mxCell>
        <mxCell id="BQbn9dsBxVs3XUPAxdL_-31" value="4. 强制失效" style="text;html=1;strokeColor=none;fillColor=none;align=center;verticalAlign=middle;whiteSpace=wrap;rounded=0;fontStyle=1;fontSize=12;" vertex="1" parent="1">
          <mxGeometry x="340" y="430" width="100" height="30" as="geometry" />
        </mxCell>
        <mxCell id="BQbn9dsBxVs3XUPAxdL_-33" style="edgeStyle=orthogonalEdgeStyle;rounded=0;orthogonalLoop=1;jettySize=auto;html=1;exitX=0.5;exitY=1;exitDx=0;exitDy=0;entryX=0.5;entryY=0;entryDx=0;entryDy=0;dashed=1;" edge="1" parent="1" target="BQbn9dsBxVs3XUPAxdL_-34">
          <mxGeometry relative="1" as="geometry">
            <mxPoint x="455" y="550" as="sourcePoint" />
          </mxGeometry>
        </mxCell>
        <mxCell id="BQbn9dsBxVs3XUPAxdL_-34" value="i = 1" style="text;html=1;strokeColor=none;fillColor=none;align=center;verticalAlign=middle;whiteSpace=wrap;rounded=0;fontStyle=1;fontSize=14;fontColor=#FF0000;" vertex="1" parent="1">
          <mxGeometry x="432.5" y="580" width="45" height="30" as="geometry" />
        </mxCell>
        <mxCell id="BQbn9dsBxVs3XUPAxdL_-37" value="5. 从主内存读取" style="text;html=1;strokeColor=none;fillColor=none;align=center;verticalAlign=middle;whiteSpace=wrap;rounded=0;fontStyle=1;fontSize=12;" vertex="1" parent="1">
          <mxGeometry x="477.5" y="430" width="100" height="30" as="geometry" />
        </mxCell>
        <mxCell id="BQbn9dsBxVs3XUPAxdL_-40" value="i = 0" style="text;html=1;strokeColor=none;fillColor=none;align=center;verticalAlign=middle;whiteSpace=wrap;rounded=0;fontStyle=1;fontSize=14;fontColor=#FF0000;" vertex="1" parent="1">
          <mxGeometry x="365" y="374.5" width="60" height="30" as="geometry" />
        </mxCell>
      </root>
    </mxGraphModel>
  </diagram>
</mxfile>
